<svg width="30" height="28" viewBox="0 0 30 28" fill="none" xmlns="http://www.w3.org/2000/svg">
<path d="M15.3998 27.1529C15.2366 27.2445 15.1021 27.318 15.0001 27.373C14.898 27.318 14.7635 27.2444 14.6003 27.1528C14.1967 26.9261 13.6182 26.5892 12.9232 26.1505C11.5321 25.2725 9.67952 23.9903 7.82931 22.3722C4.10545 19.1155 0.500306 14.5942 0.500325 9.34379L0.500287 9.33947C0.482894 7.32262 1.25552 5.37541 2.65968 3.90321C4.06103 2.43394 5.98392 1.55071 8.03041 1.43849C9.36038 1.4407 10.6656 1.79045 11.8128 2.45158C12.9637 3.11489 13.9136 4.06745 14.5657 5.21066L15 5.97204L15.4343 5.21066C16.0863 4.06772 17.0359 3.11533 18.1864 2.45205C19.3332 1.79093 20.6381 1.44103 21.9677 1.43849C24.0145 1.55026 25.9379 2.43329 27.3396 3.9026C28.7442 5.37486 29.5171 7.32233 29.4997 9.33948H29.4997V9.34379C29.4997 14.5962 25.8945 19.1174 22.1707 22.3736C20.3205 23.9915 18.468 25.2734 17.0769 26.151C16.3819 26.5895 15.8034 26.9263 15.3998 27.1529Z" fill="white" stroke="#666666"/>
</svg>
