<svg width="56" height="56" viewBox="0 0 56 56" fill="none" xmlns="http://www.w3.org/2000/svg">
<g filter="url(#filter0_ddd_1_839)">
<path d="M34.9809 15C33.5594 15.0002 32.1635 15.3731 30.9367 16.0804C29.7099 16.7877 28.6963 17.8038 28 19.0244C27.3035 17.8035 26.2896 16.7872 25.0624 16.0799C23.8352 15.3726 22.439 14.9999 21.0171 15C18.8395 15.1158 16.791 16.0541 15.2979 17.6196C13.8047 19.1852 12.9818 21.2574 13.0003 23.4053C13.0003 34.3585 28 42 28 42C28 42 42.9997 34.3624 42.9997 23.4053C43.0182 21.2571 42.195 19.1846 40.7014 17.619C39.2078 16.0534 37.1589 15.1154 34.9809 15V15Z" fill="white"/>
<path d="M28.3998 41.2144C28.2366 41.306 28.1021 41.3796 28.0001 41.4345C27.898 41.3795 27.7635 41.3059 27.6003 41.2143C27.1967 40.9876 26.6182 40.6507 25.9232 40.212C24.5321 39.3341 22.6795 38.0518 20.8293 36.4337C17.1055 33.177 13.5003 28.6558 13.5003 23.4053L13.5003 23.401C13.4829 21.3841 14.2555 19.4369 15.6597 17.9647C17.061 16.4955 18.9839 15.6122 21.0304 15.5C22.3604 15.5022 23.6656 15.852 24.8128 16.5131C25.9637 17.1764 26.9136 18.129 27.5657 19.2722L28 20.0336L28.4343 19.2722C29.0863 18.1292 30.0359 17.1769 31.1864 16.5136C32.3332 15.8525 33.6381 15.5026 34.9677 15.5C37.0145 15.6118 38.9379 16.4948 40.3396 17.9641C41.7442 19.4364 42.5171 21.3838 42.4997 23.401H42.4997V23.4053C42.4997 28.6577 38.8945 33.179 35.1707 36.4352C33.3205 38.053 31.468 39.3349 30.0769 40.2125C29.3819 40.6511 28.8034 40.9878 28.3998 41.2144Z" stroke="#666666"/>
</g>
<defs>
<filter id="filter0_ddd_1_839" x="3" y="6" width="50" height="47" filterUnits="userSpaceOnUse" color-interpolation-filters="sRGB">
<feFlood flood-opacity="0" result="BackgroundImageFix"/>
<feColorMatrix in="SourceAlpha" type="matrix" values="0 0 0 0 0 0 0 0 0 0 0 0 0 0 0 0 0 0 127 0" result="hardAlpha"/>
<feMorphology radius="1" operator="erode" in="SourceAlpha" result="effect1_dropShadow_1_839"/>
<feOffset dy="2"/>
<feGaussianBlur stdDeviation="2"/>
<feColorMatrix type="matrix" values="0 0 0 0 0 0 0 0 0 0 0 0 0 0 0 0 0 0 0.2 0"/>
<feBlend mode="normal" in2="BackgroundImageFix" result="effect1_dropShadow_1_839"/>
<feColorMatrix in="SourceAlpha" type="matrix" values="0 0 0 0 0 0 0 0 0 0 0 0 0 0 0 0 0 0 127 0" result="hardAlpha"/>
<feOffset dy="1"/>
<feGaussianBlur stdDeviation="5"/>
<feColorMatrix type="matrix" values="0 0 0 0 0 0 0 0 0 0 0 0 0 0 0 0 0 0 0.12 0"/>
<feBlend mode="normal" in2="effect1_dropShadow_1_839" result="effect2_dropShadow_1_839"/>
<feColorMatrix in="SourceAlpha" type="matrix" values="0 0 0 0 0 0 0 0 0 0 0 0 0 0 0 0 0 0 127 0" result="hardAlpha"/>
<feOffset dy="4"/>
<feGaussianBlur stdDeviation="2.5"/>
<feColorMatrix type="matrix" values="0 0 0 0 0 0 0 0 0 0 0 0 0 0 0 0 0 0 0.14 0"/>
<feBlend mode="normal" in2="effect2_dropShadow_1_839" result="effect3_dropShadow_1_839"/>
<feBlend mode="normal" in="SourceGraphic" in2="effect3_dropShadow_1_839" result="shape"/>
</filter>
</defs>
</svg>
