<svg width="37" height="35" viewBox="0 0 37 35" fill="none" xmlns="http://www.w3.org/2000/svg">
<path opacity="0.4" d="M36.7992 10.2371V24.7628C36.8079 27.2228 35.837 29.5851 34.1005 31.3292C32.364 33.0732 30.0045 34.0556 27.5422 34.06H9.30612C6.83949 34.0643 4.4724 33.0884 2.72669 31.3475C0.980981 29.6065 -3.82277e-06 27.2434 0 24.7792V10.2371C0.00134328 9.15497 0.195167 8.08167 0.572433 7.06728C1.90177 3.39136 5.39387 0.941415 9.30612 0.940004H27.4931C31.4531 0.937792 34.9791 3.44365 36.2759 7.18166C36.6357 8.15966 36.8131 9.19525 36.7992 10.2371Z" fill="#999999"/>
<path d="M36.276 7.19799L36.0961 7.34505C32.7105 9.97569 21.7525 18.7826 21.7525 18.7826C19.8471 20.3306 17.1159 20.3306 15.2104 18.7826C15.2104 18.7826 4.31786 9.99203 0.932325 7.36139L0.57251 7.08362C1.89638 3.40125 5.38973 0.943897 9.3062 0.940002H27.4932C31.4574 0.940197 34.9848 3.45354 36.276 7.19799Z" fill="#999999"/>
</svg>
