<svg width="56" height="56" viewBox="0 0 56 56" fill="none" xmlns="http://www.w3.org/2000/svg">
<path d="M34.9809 15C33.5594 15.0002 32.1635 15.3731 30.9367 16.0804C29.7099 16.7877 28.6963 17.8038 28 19.0244C27.3035 17.8035 26.2896 16.7872 25.0624 16.0799C23.8352 15.3726 22.439 14.9999 21.0171 15C18.8395 15.1158 16.791 16.0541 15.2979 17.6196C13.8047 19.1852 12.9818 21.2574 13.0003 23.4053C13.0003 34.3585 28 42 28 42C28 42 42.9997 34.3624 42.9997 23.4053C43.0182 21.2571 42.195 19.1846 40.7014 17.619C39.2078 16.0534 37.1589 15.1154 34.9809 15V15Z" fill="#FF008E"/>
</svg>
