<svg width="35" height="37" viewBox="0 0 35 37" fill="none" xmlns="http://www.w3.org/2000/svg">
<path opacity="0.4" d="M33.0802 21.6565C31.3388 20.6485 30.7362 18.4746 31.72 16.7499C32.0429 16.1931 32.5124 15.7301 33.0802 15.4087C33.943 14.9261 34.5732 14.1288 34.8316 13.1929C35.0899 12.2569 34.9552 11.2593 34.4571 10.4203L33.2313 8.27775C32.7357 7.43731 31.9171 6.82353 30.9562 6.5719C29.9953 6.32027 28.971 6.4515 28.1096 6.9366C27.2456 7.42247 26.2188 7.55413 25.2552 7.30261C24.2915 7.05109 23.4699 6.437 22.9711 5.59545C22.6446 5.03705 22.4712 4.40622 22.4673 3.76364C22.4718 2.79349 22.0793 1.86158 21.3765 1.17404C20.6737 0.486506 19.7187 0.0999963 18.7226 0.100006H16.2542C14.1833 0.099986 12.5019 1.7303 12.4927 3.74728C12.4997 5.05542 11.7869 6.26704 10.6246 6.92261C9.46233 7.57818 8.0286 7.57727 6.86719 6.92025C5.99781 6.4154 4.95563 6.27483 3.97811 6.53057C3.00059 6.78631 2.17099 7.41657 1.67834 8.27775L0.502868 10.3385C-0.524532 12.0873 0.090627 14.3158 1.87985 15.327C3.67302 16.3442 4.28166 18.5837 3.24003 20.3317C2.92145 20.8876 2.45053 21.3462 1.87985 21.6565C1.01696 22.1392 0.386775 22.9365 0.128425 23.8724C-0.129924 24.8083 0.00480459 25.8059 0.502868 26.645L1.67834 28.7385C2.72274 30.485 5.02203 31.0778 6.81682 30.0633C8.61349 29.0721 10.8943 29.6694 11.9385 31.4044C12.2708 31.9605 12.4447 32.5928 12.4423 33.2362C12.4422 34.2136 12.8431 35.1504 13.5558 35.8384C14.2685 36.5265 15.2339 36.9086 16.2374 36.8999H18.7058C20.7833 36.8999 22.4673 35.2596 22.4673 33.2362C22.4539 32.2604 22.8424 31.3201 23.5462 30.6254C24.2499 29.9308 25.2101 29.5398 26.2121 29.5399C26.8728 29.5359 27.5225 29.7054 28.0928 30.0306C29.8882 31.0312 32.1763 30.4321 33.2145 28.6894L34.4571 26.5959C35.4604 24.8595 34.8473 22.6603 33.0802 21.6565Z" fill="#999999"/>
<path d="M17.4796 23.1003C20.0201 23.1003 22.0796 21.0408 22.0796 18.5003C22.0796 15.9598 20.0201 13.9003 17.4796 13.9003C14.9391 13.9003 12.8796 15.9598 12.8796 18.5003C12.8796 21.0408 14.9391 23.1003 17.4796 23.1003Z" fill="#999999"/>
</svg>
