<svg width="34" height="34" viewBox="0 0 34 34" fill="none" xmlns="http://www.w3.org/2000/svg">
<path d="M0.333252 5.33337L11.9999 0.333374L21.9999 5.33337L32.5049 0.831707C32.6317 0.777347 32.7701 0.755323 32.9075 0.767611C33.0449 0.7799 33.1771 0.826118 33.2923 0.902116C33.4074 0.978114 33.5019 1.08151 33.5672 1.20304C33.6326 1.32456 33.6667 1.4604 33.6666 1.59837V28.6667L21.9999 33.6667L11.9999 28.6667L1.49492 33.1684C1.36811 33.2227 1.22978 33.2448 1.09236 33.2325C0.954939 33.2202 0.822717 33.174 0.707564 33.098C0.59241 33.022 0.497928 32.9186 0.432597 32.797C0.367266 32.6755 0.33313 32.5397 0.333252 32.4017V5.33337ZM23.6666 29.325L30.3333 26.4684V5.38837L23.6666 8.24504V29.325ZM20.3333 29.1067V8.22671L13.6666 4.89337V25.7734L20.3333 29.1067ZM10.3333 25.755V4.67504L3.66659 7.53171V28.6117L10.3333 25.755Z" fill="#666666"/>
</svg>
