<svg width="25" height="25" viewBox="0 0 25 25" fill="none" xmlns="http://www.w3.org/2000/svg">
<path d="M19.1339 13.3047C19.0179 13.1886 18.8802 13.0964 18.7285 13.0335C18.5769 12.9706 18.4143 12.9382 18.2502 12.9382C18.086 12.9382 17.9235 12.9706 17.7718 13.0335C17.6202 13.0964 17.4824 13.1886 17.3664 13.3047L15.3739 15.2972C14.4502 15.0222 12.7264 14.3972 11.6339 13.3047C10.5414 12.2122 9.91642 10.4885 9.64142 9.56473L11.6339 7.57223C11.7501 7.45625 11.8423 7.31849 11.9052 7.16685C11.9681 7.01521 12.0004 6.85265 12.0004 6.68848C12.0004 6.52432 11.9681 6.36176 11.9052 6.21012C11.8423 6.05847 11.7501 5.92072 11.6339 5.80473L6.63392 0.804734C6.51794 0.688552 6.38018 0.596379 6.22854 0.533491C6.0769 0.470603 5.91434 0.438232 5.75017 0.438232C5.58601 0.438232 5.42345 0.470603 5.27181 0.533491C5.12016 0.596379 4.98241 0.688552 4.86642 0.804734L1.47642 4.19473C1.00142 4.66973 0.733923 5.32223 0.743923 5.98848C0.772673 7.76848 1.24392 13.951 6.11642 18.8235C10.9889 23.696 17.1714 24.166 18.9527 24.196H18.9877C19.6477 24.196 20.2714 23.936 20.7439 23.4635L24.1339 20.0735C24.2501 19.9575 24.3423 19.8197 24.4052 19.6681C24.4681 19.5165 24.5004 19.3539 24.5004 19.1897C24.5004 19.0256 24.4681 18.863 24.4052 18.7114C24.3423 18.5597 24.2501 18.422 24.1339 18.306L19.1339 13.3047ZM18.9752 21.6947C17.4152 21.6685 12.0777 21.2497 7.88392 17.0547C3.67642 12.8472 3.26892 7.49098 3.24392 5.96223L5.75017 3.45598L8.98267 6.68848L7.36642 8.30473C7.2195 8.45155 7.11148 8.63266 7.05211 8.83169C6.99275 9.03073 6.98392 9.24143 7.02642 9.44473C7.05642 9.58848 7.79017 12.9972 9.86517 15.0722C11.9402 17.1472 15.3489 17.881 15.4927 17.911C15.6959 17.9547 15.9068 17.9466 16.106 17.8874C16.3052 17.8282 16.4863 17.7198 16.6327 17.5722L18.2502 15.956L21.4827 19.1885L18.9752 21.6947Z" fill="#666666"/>
</svg>
