<svg width="50" height="50" viewBox="0 0 50 50" fill="none" xmlns="http://www.w3.org/2000/svg">
<circle cx="25" cy="25" r="25" fill="white"/>
<path d="M34.5613 14.0148L34.5613 14.0147C34.5687 14.0229 34.5854 14.0424 34.6074 14.0681C34.6666 14.137 34.7646 14.2509 34.8249 14.314C37.6298 17.2593 39.055 20.8015 39.1158 24.9647C39.1099 26.2727 38.9692 27.5445 38.6455 28.7798L38.6446 28.7832C37.7833 32.1327 36.0487 34.8742 33.41 36.9374L33.4096 36.9377C29.3326 40.1298 24.8318 40.9083 19.9615 39.4173L19.9609 39.4171C17.1071 38.5461 14.7484 36.821 12.8594 34.3603C10.8697 31.7625 9.8149 28.803 9.70742 25.4708L9.70739 25.4699C9.61602 22.7373 10.19 20.1687 11.4633 17.7895C12.221 16.3751 13.0337 15.1249 14.192 14.2022L14.1943 14.2003C14.7749 13.7341 15.3642 13.5712 16.0157 13.702C16.908 13.883 17.5009 14.3929 17.7812 15.2909C18.0582 16.2018 17.8883 16.9783 17.2538 17.6632L17.248 17.6695L17.248 17.6695C17.1897 17.7339 17.1222 17.7936 17.0139 17.8894C17.0048 17.8974 16.9954 17.9057 16.9858 17.9143C16.8755 18.0119 16.7224 18.1487 16.5854 18.3174C15.0104 20.2455 14.1531 22.5047 14.1896 25.0595L34.5613 14.0148ZM34.5613 14.0148L34.5576 14.0106M34.5613 14.0148L34.5576 14.0106M34.5576 14.0106C33.7852 13.1378 32.5087 12.9941 31.6071 13.643L31.6063 13.6437M34.5576 14.0106L31.6063 13.6437M31.6063 13.6437C30.648 14.3314 30.3228 15.608 30.8589 16.6695L30.8589 16.6695M31.6063 13.6437L30.8589 16.6695M30.8589 16.6695L30.8615 16.6748M30.8589 16.6695L30.8615 16.6748M30.8615 16.6748C30.9806 16.9151 31.1731 17.1595 31.403 17.3893L31.4064 17.3927M30.8615 16.6748L31.4064 17.3927M31.4064 17.3927C34.1687 20.1885 35.2778 23.6021 34.2963 27.5553L34.2962 27.5555M31.4064 17.3927L34.2962 27.5555M34.2962 27.5555C33.3589 31.3241 30.9458 33.828 27.3938 34.9543L27.3928 34.9546M34.2962 27.5555L27.3928 34.9546M27.3928 34.9546C23.9305 36.0472 20.6694 35.3493 17.8747 33.0002L27.3928 34.9546ZM17.8746 33.0001C15.4657 30.9803 14.232 28.2617 14.1896 25.0599L17.8746 33.0001Z" fill="#093968" stroke="white" stroke-width="1.536"/>
<path d="M21.3699 20.4922C21.3755 22.1082 22.552 23.4481 24.0832 23.6008M21.3699 20.4922C21.3586 16.1435 21.3586 14.6154 21.3699 10.2667C21.3699 9.10905 21.8934 8.20994 22.8335 7.62228L24.0832 23.6008M21.3699 20.4922L22.1379 20.4902C22.1379 20.49 22.1379 20.4898 22.1379 20.4896C22.1423 21.7384 23.0457 22.7255 24.1594 22.8366L24.1623 22.8369C25.3402 22.959 26.409 22.1726 26.6507 20.9381L26.6508 20.9376C26.6803 20.7878 26.687 20.6178 26.6871 20.3884C26.6758 18.2548 26.6758 17.5272 26.6758 15.3941C26.6758 14.6099 26.6766 14.0112 26.6772 13.464C26.6784 12.4997 26.6794 11.6951 26.6758 10.3165C26.6712 9.35303 26.2634 8.67326 25.4799 8.22383L25.4793 8.2235C24.7253 7.79015 23.983 7.8058 23.2428 8.27209L23.2428 8.2721L23.2406 8.27351C22.52 8.72394 22.1379 9.37967 22.1379 10.2667L22.1379 10.2687C22.1266 14.6158 22.1266 16.1427 22.1379 20.4895L21.3699 20.4922ZM24.0832 23.6008C25.6706 23.7654 27.0892 22.6959 27.4044 21.0857L24.0832 23.6008Z" fill="#093968" stroke="white" stroke-width="1.536"/>
</svg>
