<svg width="25" height="26" viewBox="0 0 25 26" fill="none" xmlns="http://www.w3.org/2000/svg">
<path d="M12.5 25.4385C5.59625 25.4385 0 19.8422 0 12.9385C0 6.03473 5.59625 0.438477 12.5 0.438477C19.4037 0.438477 25 6.03473 25 12.9385C25 19.8422 19.4037 25.4385 12.5 25.4385ZM12.5 22.9385C15.1522 22.9385 17.6957 21.8849 19.5711 20.0095C21.4464 18.1342 22.5 15.5906 22.5 12.9385C22.5 10.2863 21.4464 7.74277 19.5711 5.86741C17.6957 3.99205 15.1522 2.93848 12.5 2.93848C9.84784 2.93848 7.3043 3.99205 5.42893 5.86741C3.55357 7.74277 2.5 10.2863 2.5 12.9385C2.5 15.5906 3.55357 18.1342 5.42893 20.0095C7.3043 21.8849 9.84784 22.9385 12.5 22.9385V22.9385ZM13.75 12.9385H18.75V15.4385H11.25V6.68848H13.75V12.9385Z" fill="#666666"/>
</svg>
