<svg width="22" height="29" viewBox="0 0 22 29" fill="none" xmlns="http://www.w3.org/2000/svg">
<path d="M11 6.46973C9.98019 6.46973 8.98328 6.77214 8.13534 7.33871C7.2874 7.90529 6.62651 8.71058 6.23625 9.65277C5.84598 10.5949 5.74387 11.6317 5.94283 12.6319C6.14178 13.6321 6.63287 14.5509 7.35398 15.272C8.07509 15.9931 8.99385 16.4842 9.99407 16.6832C10.9943 16.8821 12.031 16.78 12.9732 16.3897C13.9154 15.9995 14.7207 15.3386 15.2873 14.4906C15.8538 13.6427 16.1562 12.6458 16.1562 11.626C16.1547 10.2589 15.611 8.94832 14.6443 7.98167C13.6777 7.01502 12.367 6.47128 11 6.46973ZM11 13.9697C10.5365 13.9697 10.0833 13.8323 9.69788 13.5747C9.31245 13.3172 9.01205 12.9512 8.83466 12.5229C8.65726 12.0946 8.61085 11.6234 8.70128 11.1687C8.79172 10.7141 9.01494 10.2965 9.34272 9.96869C9.6705 9.64092 10.0881 9.4177 10.5428 9.32726C10.9974 9.23683 11.4686 9.28324 11.8969 9.46063C12.3252 9.63803 12.6912 9.93843 12.9488 10.3239C13.2063 10.7093 13.3438 11.1624 13.3438 11.626C13.3438 12.2476 13.0968 12.8437 12.6573 13.2833C12.2177 13.7228 11.6216 13.9697 11 13.9697ZM11 0.844727C8.14159 0.847828 5.40114 1.9847 3.37993 4.00591C1.35873 6.02711 0.221852 8.76756 0.21875 11.626C0.21875 20.6916 9.78594 27.4932 10.1938 27.7779C10.4301 27.9433 10.7116 28.032 11 28.032C11.2884 28.032 11.5699 27.9433 11.8063 27.7779C13.6183 26.4425 15.2761 24.9096 16.7492 23.2076C20.041 19.4271 21.7812 15.4193 21.7812 11.626C21.7781 8.76756 20.6413 6.02711 18.6201 4.00591C16.5989 1.9847 13.8584 0.847828 11 0.844727ZM14.668 21.3186C13.5506 22.602 12.3233 23.7854 11 24.8553C9.67669 23.7854 8.44937 22.602 7.33203 21.3186C5.375 19.0521 3.03125 15.5295 3.03125 11.626C3.03125 9.51253 3.87081 7.48565 5.36524 5.99122C6.85967 4.49679 8.88656 3.65723 11 3.65723C13.1134 3.65723 15.1403 4.49679 16.6348 5.99122C18.1292 7.48565 18.9688 9.51253 18.9688 11.626C18.9688 15.5295 16.625 19.0521 14.668 21.3186Z" fill="#666666"/>
</svg>
