<svg width="37" height="37" viewBox="0 0 37 37" fill="none" xmlns="http://www.w3.org/2000/svg">
<rect y="0.100006" width="36.8" height="36.8" rx="12.88" fill="#999999"/>
<rect x="9.19995" y="3.78064" width="20.24" height="25.76" fill="white"/>
<rect x="9.19995" y="3.78064" width="20.24" height="20.24" fill="white"/>
<path d="M18.4 0.100006C8.24167 0.100006 0 8.34167 0 18.5C0 28.6583 8.24167 36.9 18.4 36.9C28.5583 36.9 36.8 28.6583 36.8 18.5C36.8 8.34167 28.5583 0.100006 18.4 0.100006ZM17.825 29.2333C17.4459 29.2333 17.0753 29.1209 16.7602 28.9103C16.445 28.6997 16.1993 28.4004 16.0542 28.0501C15.9092 27.6999 15.8712 27.3145 15.9452 26.9427C16.0191 26.571 16.2017 26.2294 16.4697 25.9614C16.7378 25.6933 17.0793 25.5108 17.4511 25.4368C17.8229 25.3629 18.2082 25.4008 18.5585 25.5459C18.9087 25.691 19.208 25.9366 19.4186 26.2518C19.6293 26.567 19.7417 26.9376 19.7417 27.3167C19.7417 27.825 19.5397 28.3125 19.1803 28.672C18.8208 29.0314 18.3333 29.2333 17.825 29.2333ZM21.0297 19.4583C19.4762 20.501 19.2625 21.4565 19.2625 22.3333C19.2625 22.6892 19.1211 23.0304 18.8695 23.282C18.6179 23.5337 18.2767 23.675 17.9208 23.675C17.565 23.675 17.2237 23.5337 16.9721 23.282C16.7205 23.0304 16.5792 22.6892 16.5792 22.3333C16.5792 20.2336 17.5452 18.5642 19.5327 17.2293C21.3804 15.9892 22.425 15.2033 22.425 13.4755C22.425 12.3005 21.7542 11.4083 20.3655 10.748C20.0387 10.5928 19.3114 10.4414 18.4163 10.4519C17.2931 10.4663 16.421 10.7346 15.7492 11.2751C14.4823 12.2948 14.375 13.4045 14.375 13.4208C14.3665 13.597 14.3234 13.7698 14.2481 13.9293C14.1728 14.0889 14.0669 14.232 13.9363 14.3506C13.8057 14.4692 13.653 14.5609 13.487 14.6204C13.321 14.68 13.1448 14.7063 12.9686 14.6978C12.7925 14.6893 12.6197 14.6462 12.4601 14.5709C12.3006 14.4957 12.1575 14.3897 12.0389 14.2591C11.9203 14.1285 11.8286 13.9759 11.769 13.8098C11.7095 13.6438 11.6832 13.4677 11.6917 13.2915C11.7022 13.0586 11.8642 10.9608 14.0655 9.1898C15.2068 8.27171 16.6587 7.79446 18.378 7.77338C19.595 7.75901 20.7383 7.96505 21.5136 8.33113C23.8337 9.42842 25.1083 11.2579 25.1083 13.4755C25.1083 16.7175 22.9415 18.1732 21.0297 19.4583Z" fill="#999999"/>
</svg>
