<svg width="30" height="26" viewBox="0 0 30 26" fill="none" xmlns="http://www.w3.org/2000/svg">
<path d="M21.9809 0.938477C21.9809 0.938477 21.9809 0.938477 21.9809 0.938477C20.5594 0.938721 19.1635 1.31162 17.9367 2.01887V2.01887C16.3265 2.94713 13.6727 2.94644 12.0624 2.01838V2.01838C10.8352 1.3111 9.43897 0.938373 8.01711 0.938477C5.83948 1.05432 3.79102 1.99259 2.29786 3.55811C0.804694 5.12364 -0.0182181 7.19589 0.000306084 9.34379C0.000306084 14.4413 3.24909 18.8215 6.72273 22.0481C11.4118 26.4035 18.5887 26.4043 23.2779 22.049C26.7513 18.8229 29.9997 14.4428 29.9997 9.34379C30.0182 7.19557 29.195 5.12304 27.7014 3.55747C26.2078 1.99189 24.1589 1.05383 21.9809 0.938477C21.9809 0.938477 21.9809 0.938477 21.9809 0.938477V0.938477Z" fill="#FF008E"/>
</svg>
