<svg width="34" height="37" viewBox="0 0 34 37" fill="none" xmlns="http://www.w3.org/2000/svg">
<path opacity="0.4" d="M24.2714 0.0999756H8.8504C3.2568 0.0999756 0 3.37518 0 8.98717V27.9944C0 33.6984 3.2568 36.9 8.8504 36.9H24.2714C29.9552 36.9 33.12 33.6984 33.12 27.9944V8.98717C33.12 3.37518 29.9552 0.0999756 24.2714 0.0999756Z" fill="#999999"/>
<path fill-rule="evenodd" clip-rule="evenodd" d="M9.34662 8.6557V8.6741C8.55358 8.6741 7.91142 9.3181 7.91142 10.1093C7.91142 10.9005 8.55358 11.5445 9.34662 11.5445H14.8464C15.6394 11.5445 16.2834 10.9005 16.2834 10.0891C16.2834 9.2997 15.6394 8.6557 14.8464 8.6557H9.34662ZM23.7722 19.8622H9.34659C8.55355 19.8622 7.91139 19.2182 7.91139 18.427C7.91139 17.6358 8.55355 16.99 9.34659 16.99H23.7722C24.5634 16.99 25.2074 17.6358 25.2074 18.427C25.2074 19.2182 24.5634 19.8622 23.7722 19.8622ZM23.7725 28.2693H9.34689C8.79489 28.3429 8.26129 28.0669 7.96689 27.6069C7.67249 27.1285 7.67249 26.5213 7.96689 26.0613C8.26129 25.5829 8.79489 25.3253 9.34689 25.3805H23.7725C24.5067 25.4541 25.0605 26.0797 25.0605 26.8341C25.0605 27.5682 24.5067 28.1957 23.7725 28.2693Z" fill="#999999"/>
</svg>
