<svg width="26" height="33" viewBox="0 0 26 33" fill="none" xmlns="http://www.w3.org/2000/svg">
<path fill-rule="evenodd" clip-rule="evenodd" d="M6.49819 2.58364C10.5183 0.24777 15.4597 0.288598 19.4421 2.69059C23.3854 5.14151 25.782 9.51567 25.7597 14.221C25.6679 18.8955 23.0981 23.2896 19.8857 26.6864C18.0317 28.6558 15.9576 30.3972 13.7059 31.8751C13.474 32.0092 13.2199 32.099 12.9563 32.14C12.7026 32.1292 12.4555 32.0542 12.2374 31.9218C8.79966 29.7012 5.78374 26.8666 3.33469 23.5545C1.2854 20.7897 0.121136 17.4494 2.14103e-06 13.9873C-0.00266034 9.27292 2.47805 4.91952 6.49819 2.58364ZM8.82133 15.9376C9.49757 17.6048 11.0938 18.6922 12.8646 18.6922C14.0247 18.7005 15.1399 18.2359 15.9617 17.4017C16.7835 16.5675 17.2436 15.4332 17.2395 14.2514C17.2457 12.4476 16.1837 10.8179 14.5494 10.1232C12.9152 9.42852 11.031 9.80594 9.77658 11.0792C8.5222 12.3525 8.14509 14.2705 8.82133 15.9376Z" fill="#999999"/>
</svg>
