<svg width="34" height="37" viewBox="0 0 34 37" fill="none" xmlns="http://www.w3.org/2000/svg">
<path opacity="0.4" d="M16.5601 20.5448C22.2763 20.5448 26.9103 15.9681 26.9103 10.3226C26.9103 4.67699 22.2763 0.100342 16.5601 0.100342C10.8439 0.100342 6.20996 4.67699 6.20996 10.3226C6.20996 15.9681 10.8439 20.5448 16.5601 20.5448Z" fill="#999999"/>
<path d="M33.102 30.7831C33.1114 30.6376 33.1114 30.4917 33.102 30.3462C33.0611 29.8085 32.9085 29.2834 32.6529 28.8003C31.6467 26.8343 28.8259 25.9437 26.4722 25.4396C24.793 25.09 23.0868 24.8652 21.3696 24.7674L19.573 24.633H18.7644H17.7583H15.3507H14.3446H13.5361L11.7394 24.7674C10.0222 24.8652 8.31604 25.09 6.63679 25.4396C4.28312 25.8765 1.46232 26.7839 0.456175 28.8003C0.200529 29.2834 0.0479635 29.8085 0.00700262 30.3462C-0.00233421 30.4917 -0.00233421 30.6376 0.00700262 30.7831C-0.0016179 30.9287 -0.0016179 31.0745 0.00700262 31.22C0.0558727 31.7531 0.214497 32.2724 0.474142 32.7492C1.48029 34.7152 4.30109 35.6058 6.65476 36.1099C8.33713 36.4431 10.042 36.6677 11.7574 36.782L13.554 36.8997H13.9853H14.3626H18.7824H19.1597H19.5909L21.3876 36.782C23.1029 36.6677 24.8078 36.4431 26.4902 36.1099C28.8439 35.6562 31.6647 34.7656 32.6708 32.7492C32.9184 32.2573 33.0705 31.7281 33.12 31.1864C33.1223 31.0518 33.1163 30.9171 33.102 30.7831Z" fill="#999999"/>
</svg>
