<svg width="49" height="49" viewBox="0 0 49 49" fill="none" xmlns="http://www.w3.org/2000/svg">
<path d="M24.5 44.5C13.454 44.5 4.5 35.546 4.5 24.5C4.5 13.454 13.454 4.5 24.5 4.5C35.546 4.5 44.5 13.454 44.5 24.5C44.5 35.546 35.546 44.5 24.5 44.5ZM24.5 40.5C28.7435 40.5 32.8131 38.8143 35.8137 35.8137C38.8143 32.8131 40.5 28.7435 40.5 24.5C40.5 20.2565 38.8143 16.1869 35.8137 13.1863C32.8131 10.1857 28.7435 8.5 24.5 8.5C20.2565 8.5 16.1869 10.1857 13.1863 13.1863C10.1857 16.1869 8.5 20.2565 8.5 24.5C8.5 28.7435 10.1857 32.8131 13.1863 35.8137C16.1869 38.8143 20.2565 40.5 24.5 40.5V40.5ZM14.5 22.5H34.5V26.5H14.5V22.5Z" fill="#DDDDDD"/>
</svg>
