<svg width="37" height="35" viewBox="0 0 37 35" fill="none" xmlns="http://www.w3.org/2000/svg">
<path fill-rule="evenodd" clip-rule="evenodd" d="M36.7935 10.8302H29.0017C25.3756 10.8366 22.4382 13.7007 22.4316 17.2361C22.4267 20.7795 25.3675 23.6563 29.0017 23.6611H36.8V24.224C36.8 30.405 33.0529 34.06 26.7119 34.06H10.0897C3.74706 34.06 0 30.405 0 24.224V10.7617C0 4.58067 3.74706 0.940002 10.0897 0.940002H26.7053C33.0464 0.940002 36.7935 4.58067 36.7935 10.7617V10.8302ZM8.72065 10.8167H19.0983H19.1048H19.1179C19.8948 10.8135 20.5228 10.1964 20.5196 9.43728C20.5163 8.67981 19.8817 8.06745 19.1048 8.07064H8.72065C7.94867 8.07383 7.32226 8.68459 7.31898 9.43888C7.31571 10.1964 7.94377 10.8135 8.72065 10.8167Z" fill="#999999"/>
<path opacity="0.4" d="M25.8291 18.0457C26.2139 19.7958 27.7483 21.0272 29.5002 20.9952H35.4801C36.209 20.9952 36.8003 20.3915 36.8003 19.6453V14.9873C36.7987 14.2427 36.209 13.6374 35.4801 13.6358H29.3594C27.3667 13.6422 25.7571 15.2963 25.7603 17.3347C25.7603 17.5733 25.7837 17.8119 25.8291 18.0457Z" fill="#999999"/>
<path d="M29.4403 19.155C30.4565 19.155 31.2803 18.3312 31.2803 17.315C31.2803 16.2988 30.4565 15.475 29.4403 15.475C28.4241 15.475 27.6003 16.2988 27.6003 17.315C27.6003 18.3312 28.4241 19.155 29.4403 19.155Z" fill="#999999"/>
</svg>
